<svg width="40" height="42" viewBox="0 0 40 42" fill="none" xmlns="http://www.w3.org/2000/svg">
<g clip-path="url(#clip0_91_1718)">

<path d="M18.2889 37.3696C9.59727 36.5025 2.78902 29.1011 2.78902 20.1308C2.78902 10.5756 10.5069 2.80323 20 2.80323C29.4931 2.80323 37.211 10.5756 37.211 20.1268C37.211 21.2319 37.1028 22.3088 36.9064 23.3535C37.76 24.1884 38.4893 25.1524 39.0583 26.2172C39.6674 24.2933 39.996 22.2483 39.996 20.1227C40 9.03083 31.0279 0 20 0C8.97215 0 0 9.03083 0 20.1308C0 31.2308 8.97215 40.2616 20 40.2616C20.1362 40.2616 20.2725 40.2535 20.4087 40.2495C19.5672 39.4065 18.8499 38.4345 18.2889 37.3696Z" fill="white"/>
<path d="M35.1712 20.167C35.1712 19.5056 34.6382 18.9691 33.9811 18.9691H29.7574C28.7837 18.9691 27.9061 19.4007 27.301 20.0783C27.7578 20.0218 28.2227 19.9936 28.6955 19.9936C30.6671 19.9936 32.5224 20.4816 34.1534 21.3448C34.7264 21.2601 35.1712 20.768 35.1712 20.167Z" fill="white"/>
<path d="M23.7948 8.75256C22.4443 8.75256 21.3464 9.85772 21.3464 11.217V18.0536C21.3464 18.5376 20.9577 18.9289 20.4768 18.9289H19.5551C17.7639 18.9289 16.3053 20.397 16.3053 22.2V29.1173C16.3053 29.1939 16.165 29.198 16.165 29.1173V12.4956C16.165 11.1363 15.0671 10.0312 13.7166 10.0312H13.6445C12.2941 10.0312 11.1961 11.1363 11.1961 12.4956V18.0294C11.1961 18.5336 10.7874 18.9531 10.2905 18.9571L6.03881 18.9974C5.38162 19.0015 4.85267 19.546 4.86069 20.2075C4.86469 20.8649 5.39765 21.3933 6.05083 21.3933H6.06285L10.3185 21.353C12.1137 21.3288 13.5764 19.8404 13.5764 18.0294V12.4956C13.5764 12.4552 13.6084 12.423 13.6485 12.423H13.7206C13.7607 12.423 13.7928 12.4552 13.7928 12.4956V29.1173C13.7928 30.4766 14.8907 31.5817 16.2412 31.5817C16.4856 31.5817 16.722 31.5454 16.9464 31.4769C17.0106 29.3351 17.6397 27.3345 18.6896 25.6203V22.2C18.6896 21.716 19.0783 21.3247 19.5591 21.3247H20.4808C22.272 21.3247 23.7307 19.8566 23.7307 18.0536V11.217C23.7307 11.1766 23.7627 11.1444 23.8388 11.1444C23.8789 11.1444 23.911 11.1766 23.911 11.217V21.0263C24.6643 20.6875 25.4618 20.4212 26.2913 20.2478V11.217C26.2913 9.85772 25.1933 8.75256 23.8068 8.75256H23.7948Z" fill="white"/>
<path d="M28.6955 21.6877C23.1255 21.6877 18.6094 26.2334 18.6094 31.8439C18.6094 37.4544 23.1255 42 28.6955 42C34.2656 42 38.7857 37.4503 38.7857 31.8439C38.7857 26.2374 34.2696 21.6877 28.6955 21.6877ZM34.6583 32.3077C34.6583 32.8159 34.2495 33.2314 33.7406 33.2314H30.074V36.922C30.074 37.4302 29.6653 37.8416 29.1564 37.8416H28.2387C27.7338 37.8416 27.3251 37.4302 27.3251 36.922V33.2314H23.6545C23.1495 33.2314 22.7408 32.8159 22.7408 32.3077V31.3841C22.7408 30.8759 23.1495 30.4604 23.6545 30.4604H27.3251V26.7699C27.3251 26.2616 27.7338 25.8462 28.2387 25.8462H29.1564C29.6653 25.8462 30.074 26.2616 30.074 26.7699V30.4604H33.7406C34.2495 30.4604 34.6583 30.8759 34.6583 31.3841V32.3077Z" fill="white"/>

</g>
<defs>
<clipPath id="clip0_91_1718">
<rect width="40" height="42" fill="white"/>
</clipPath>
</defs>
</svg>
