<svg width="41" height="40" viewBox="0 0 41 40" fill="none" xmlns="http://www.w3.org/2000/svg">
<g clip-path="url(#clip0_91_1701)">

<path d="M20.157 39.1665C9.58996 39.1665 0.990479 30.567 0.990479 20C0.990479 9.43297 9.58996 0.833496 20.157 0.833496C30.724 0.833496 39.3235 9.43297 39.3235 20C39.3235 30.567 30.724 39.1665 20.157 39.1665ZM20.157 2.78501C10.6639 2.78501 2.946 10.5069 2.946 20C2.946 29.4931 10.6679 37.211 20.157 37.211C29.6461 37.211 37.368 29.4891 37.368 20C37.368 10.5109 29.6461 2.78501 20.157 2.78501Z" fill="white"/>
<path d="M20.157 40C9.12913 40 0.156982 31.0279 0.156982 20C0.156982 8.97215 9.12913 0 20.157 0C31.1848 0 40.157 8.97215 40.157 20C40.157 31.0279 31.1848 40 20.157 40ZM20.157 1.98758C10.2231 1.98758 2.14456 10.0661 2.14456 20C2.14456 29.9339 10.2271 38.0124 20.157 38.0124C30.0869 38.0124 38.1694 29.9299 38.1694 20C38.1694 10.0701 30.0909 1.98758 20.157 1.98758Z" fill="white"/>
<path d="M16.3901 31.3765C15.0397 31.3765 13.9417 30.2785 13.9417 28.9281V12.4144C13.9417 12.3743 13.9096 12.3422 13.8696 12.3422H13.7974C13.7574 12.3422 13.7253 12.3743 13.7253 12.4144V17.9123C13.7253 19.7115 12.2627 21.1902 10.4674 21.2142L6.21178 21.2543H6.19975C5.54658 21.2543 5.01763 20.7293 5.00961 20.0762C5.0016 19.419 5.53055 18.882 6.18773 18.874L10.4394 18.8339C10.9363 18.8259 11.345 18.4132 11.345 17.9123V12.4144C11.345 11.0639 12.443 9.96597 13.7934 9.96597H13.8656C15.216 9.96597 16.314 11.0639 16.314 12.4144V28.9281C16.314 29.0082 16.4542 29.0042 16.4542 28.9281V22.0557C16.4542 20.2645 17.9128 18.8059 19.7041 18.8059H20.6257C21.1066 18.8059 21.4953 18.4172 21.4953 17.9363V11.1441C21.4953 9.79365 22.5933 8.69568 23.9437 8.69568C25.2941 8.69568 26.4282 9.79365 26.4282 11.1441V27.6819C26.4282 27.7219 26.4602 27.754 26.5003 27.754C26.5764 27.754 26.6085 27.7219 26.6085 27.6819V22.1479C26.6085 20.3286 28.0912 18.8459 29.9104 18.8459H34.134C34.7912 18.8459 35.3242 19.3789 35.3242 20.0361C35.3242 20.6933 34.7912 21.2262 34.134 21.2262H29.9104C29.4015 21.2262 28.9888 21.639 28.9888 22.1479V27.6819C28.9888 29.0323 27.8908 30.1303 26.5404 30.1303C25.1899 30.1303 24.0559 29.0323 24.0559 27.6819V11.1441C24.0559 11.104 24.0238 11.072 23.9838 11.072C23.9076 11.072 23.8756 11.104 23.8756 11.1441V17.9363C23.8756 19.7275 22.4169 21.1862 20.6257 21.1862H19.7041C19.2232 21.1862 18.8345 21.5749 18.8345 22.0557V28.9281C18.8345 30.2785 17.7365 31.3765 16.3861 31.3765H16.3901Z" fill="white"/>


</g>
<defs>
<clipPath id="clip0_91_1701">
<rect width="40" height="40" fill="white" transform="translate(0.156982)"/>
</clipPath>
</defs>
</svg>
